<svg xmlns="http://www.w3.org/2000/svg" viewBox="0 0 100 90" width="100" height="90" shape-rendering="crispEdges" fill="currentColor"><rect x="65" y="10" width="5" height="5"/><rect x="70" y="10" width="5" height="5"/><rect x="75" y="10" width="5" height="5"/><rect x="80" y="10" width="5" height="5"/><rect x="85" y="10" width="5" height="5"/><rect x="60" y="15" width="5" height="5"/><rect x="70" y="15" width="5" height="5"/><rect x="75" y="15" width="5" height="5"/><rect x="80" y="15" width="5" height="5"/><rect x="85" y="15" width="5" height="5"/><rect x="90" y="15" width="5" height="5"/><rect x="60" y="20" width="5" height="5"/><rect x="65" y="20" width="5" height="5"/><rect x="70" y="20" width="5" height="5"/><rect x="75" y="20" width="5" height="5"/><rect x="85" y="20" width="5" height="5"/><rect x="90" y="20" width="5" height="5"/><rect x="60" y="25" width="5" height="5"/><rect x="65" y="25" width="5" height="5"/><rect x="70" y="25" width="5" height="5"/><rect x="75" y="25" width="5" height="5"/><rect x="80" y="25" width="5" height="5"/><rect x="55" y="30" width="5" height="5"/><rect x="60" y="30" width="5" height="5"/><rect x="65" y="30" width="5" height="5"/><rect x="70" y="30" width="5" height="5"/><rect x="30" y="35" width="5" height="5"/><rect x="35" y="35" width="5" height="5"/><rect x="40" y="35" width="5" height="5"/><rect x="45" y="35" width="5" height="5"/><rect x="50" y="35" width="5" height="5"/><rect x="55" y="35" width="5" height="5"/><rect x="60" y="35" width="5" height="5"/><rect x="65" y="35" width="5" height="5"/><rect x="70" y="35" width="5" height="5"/><rect x="20" y="40" width="5" height="5"/><rect x="25" y="40" width="5" height="5"/><rect x="30" y="40" width="5" height="5"/><rect x="35" y="40" width="5" height="5"/><rect x="40" y="40" width="5" height="5"/><rect x="45" y="40" width="5" height="5"/><rect x="50" y="40" width="5" height="5"/><rect x="55" y="40" width="5" height="5"/><rect x="60" y="40" width="5" height="5"/><rect x="65" y="40" width="5" height="5"/><rect x="70" y="40" width="5" height="5"/><rect x="15" y="45" width="5" height="5"/><rect x="20" y="45" width="5" height="5"/><rect x="25" y="45" width="5" height="5"/><rect x="30" y="45" width="5" height="5"/><rect x="35" y="45" width="5" height="5"/><rect x="40" y="45" width="5" height="5"/><rect x="45" y="45" width="5" height="5"/><rect x="50" y="45" width="5" height="5"/><rect x="55" y="45" width="5" height="5"/><rect x="60" y="45" width="5" height="5"/><rect x="65" y="45" width="5" height="5"/><rect x="20" y="50" width="5" height="5"/><rect x="25" y="50" width="5" height="5"/><rect x="30" y="50" width="5" height="5"/><rect x="35" y="50" width="5" height="5"/><rect x="40" y="50" width="5" height="5"/><rect x="45" y="50" width="5" height="5"/><rect x="50" y="50" width="5" height="5"/><rect x="55" y="50" width="5" height="5"/><rect x="30" y="55" width="5" height="5"/><rect x="35" y="55" width="5" height="5"/><rect x="45" y="55" width="5" height="5"/><rect x="55" y="55" width="5" height="5"/><rect x="60" y="55" width="5" height="5"/><rect x="20" y="60" width="5" height="5"/><rect x="25" y="60" width="5" height="5"/><rect x="55" y="60" width="5" height="5"/><rect x="60" y="60" width="5" height="5"/><rect x="20" y="65" width="5" height="5"/><rect x="25" y="65" width="5" height="5"/><rect x="50" y="65" width="5" height="5"/><rect x="55" y="65" width="5" height="5"/><rect x="60" y="65" width="5" height="5"/><rect x="15" y="70" width="5" height="5"/><rect x="20" y="70" width="5" height="5"/><rect x="25" y="70" width="5" height="5"/><rect x="55" y="70" width="5" height="5"/><rect x="60" y="70" width="5" height="5"/><rect x="15" y="75" width="5" height="5"/><rect x="20" y="75" width="5" height="5"/><rect x="65" y="75" width="5" height="5"/><rect x="70" y="75" width="5" height="5"/><rect x="10" y="80" width="5" height="5"/><rect x="15" y="80" width="5" height="5"/><rect x="20" y="80" width="5" height="5"/><rect x="25" y="80" width="5" height="5"/><rect x="55" y="80" width="5" height="5"/><rect x="60" y="80" width="5" height="5"/><rect x="65" y="80" width="5" height="5"/><rect x="70" y="80" width="5" height="5"/></svg>